<?xml version="1.0" encoding="UTF-8" standalone="no"?>
<!DOCTYPE svg PUBLIC "-//W3C//DTD SVG 1.1//EN"
 "http://www.w3.org/Graphics/SVG/1.1/DTD/svg11.dtd">
<!-- Generated by graphviz version 2.42.4 (0)
 -->
<!-- Title: G Pages: 1 -->
<svg width="832pt" height="346pt"
 viewBox="0.00 0.00 832.00 346.00" xmlns="http://www.w3.org/2000/svg" xmlns:xlink="http://www.w3.org/1999/xlink">
<g id="graph0" class="graph" transform="scale(1 1) rotate(0) translate(4 342)">
<title>G</title>
<g id="clust1" class="cluster">
<title>cluster_281473275379952</title>
<polygon fill="#e6f1fb" stroke="#185fa5" stroke-width="0.5" points="8,-8 8,-330 816,-330 816,-8 8,-8"/>
<text text-anchor="middle" x="412" y="-316.4" font-family="sans-Serif,sans-Serif" font-size="12.00">KrisMonthly</text>
</g>
<g id="clust2" class="cluster">
<title>cluster_281473275379792</title>
<polygon fill="#e6f1fb" stroke="#185fa5" stroke-width="0.5" points="354,-228 354,-301 689,-301 689,-228 354,-228"/>
<text text-anchor="middle" x="521.5" y="-287.4" font-family="sans-Serif,sans-Serif" font-size="12.00">IncomeSubmodule</text>
</g>
<g id="clust3" class="cluster">
<title>cluster_281473275380112</title>
<polygon fill="#e6f1fb" stroke="#185fa5" stroke-width="0.5" points="332,-122 332,-195 487,-195 487,-122 332,-122"/>
<text text-anchor="middle" x="409.5" y="-181.4" font-family="sans-Serif,sans-Serif" font-size="12.00">TaxSubmodule</text>
</g>
<g id="clust4" class="cluster">
<title>cluster_281473275380432</title>
<polygon fill="#e6f1fb" stroke="#185fa5" stroke-width="0.5" points="16,-122 16,-195 165,-195 165,-122 16,-122"/>
<text text-anchor="middle" x="90.5" y="-181.4" font-family="sans-Serif,sans-Serif" font-size="12.00">ExpensesSubmodule</text>
</g>
<g id="clust5" class="cluster">
<title>cluster_281473275381072</title>
<polygon fill="#e6f1fb" stroke="#185fa5" stroke-width="0.5" points="259,-16 259,-89 398,-89 398,-16 259,-16"/>
<text text-anchor="middle" x="328.5" y="-75.4" font-family="sans-Serif,sans-Serif" font-size="12.00">SavingsSubmodule</text>
</g>
<!-- __anchor_281473275379952 -->
<!-- __anchor_281473275379792 -->
<!-- __anchor_281473275380112 -->
<!-- __anchor_281473275379792&#45;&gt;__anchor_281473275380112 -->
<g id="edge1" class="edge">
<title>__anchor_281473275379792&#45;&gt;__anchor_281473275380112</title>
<path fill="none" stroke="black" stroke-width="0.8" d="M354,-254C347.71,-254 340,-254 340,-254 340,-254 340,-227.65 340,-202.14"/>
<polygon fill="black" stroke="black" stroke-width="0.8" points="342.45,-202 340,-195 337.55,-202 342.45,-202"/>
<text text-anchor="middle" x="363" y="-206" font-family="sans-Serif,sans-Serif" font-size="10.00">income_submodule</text>
</g>
<!-- __anchor_281473275381072 -->
<!-- __anchor_281473275379792&#45;&gt;__anchor_281473275381072 -->
<g id="edge3" class="edge">
<title>__anchor_281473275379792&#45;&gt;__anchor_281473275381072</title>
<path fill="none" stroke="black" stroke-width="0.8" d="M354,-247C333.75,-247 282,-247 282,-247 282,-247 282,-156.99 282,-96.25"/>
<polygon fill="black" stroke="black" stroke-width="0.8" points="284.45,-96 282,-89 279.55,-96 284.45,-96"/>
<text text-anchor="middle" x="263" y="-145.5" font-family="sans-Serif,sans-Serif" font-size="10.00">income_submodule</text>
</g>
<!-- 281473275381392 -->
<g id="node3" class="node">
<title>281473275381392</title>
<path fill="#f1efe8" stroke="black" stroke-width="0.5" d="M486.5,-272C486.5,-272 403.5,-272 403.5,-272 397.5,-272 391.5,-266 391.5,-260 391.5,-260 391.5,-248 391.5,-248 391.5,-242 397.5,-236 403.5,-236 403.5,-236 486.5,-236 486.5,-236 492.5,-236 498.5,-242 498.5,-248 498.5,-248 498.5,-260 498.5,-260 498.5,-266 492.5,-272 486.5,-272"/>
<text text-anchor="middle" x="445" y="-251.2" font-family="sans-Serif,sans-Serif" font-size="11.00">JobIncomeNode</text>
</g>
<!-- 281473275383312 -->
<g id="node6" class="node">
<title>281473275383312</title>
<path fill="#f1efe8" stroke="black" stroke-width="0.5" d="M466.5,-166C466.5,-166 381.5,-166 381.5,-166 375.5,-166 369.5,-160 369.5,-154 369.5,-154 369.5,-142 369.5,-142 369.5,-136 375.5,-130 381.5,-130 381.5,-130 466.5,-130 466.5,-130 472.5,-130 478.5,-136 478.5,-142 478.5,-142 478.5,-154 478.5,-154 478.5,-160 472.5,-166 466.5,-166"/>
<text text-anchor="middle" x="424" y="-145.2" font-family="sans-Serif,sans-Serif" font-size="11.00">TaxBurdenNode</text>
</g>
<!-- 281473275381392&#45;&gt;281473275383312 -->
<g id="edge2" class="edge">
<title>281473275381392&#45;&gt;281473275383312</title>
<path fill="none" stroke="black" stroke-width="0.8" d="M435,-235.54C435,-235.54 435,-173.25 435,-173.25"/>
<polygon fill="black" stroke="black" stroke-width="0.8" points="437.45,-173.25 435,-166.25 432.55,-173.25 437.45,-173.25"/>
<text text-anchor="middle" x="488" y="-206" font-family="sans-Serif,sans-Serif" font-size="10.00">job_income_node</text>
</g>
<!-- 281473275385312 -->
<g id="node10" class="node">
<title>281473275385312</title>
<path fill="#f1efe8" stroke="black" stroke-width="0.5" d="M378,-60C378,-60 308,-60 308,-60 302,-60 296,-54 296,-48 296,-48 296,-36 296,-36 296,-30 302,-24 308,-24 308,-24 378,-24 378,-24 384,-24 390,-30 390,-36 390,-36 390,-48 390,-48 390,-54 384,-60 378,-60"/>
<text text-anchor="middle" x="343" y="-39.2" font-family="sans-Serif,sans-Serif" font-size="11.00">SavingsNode</text>
</g>
<!-- 281473275381392&#45;&gt;281473275385312 -->
<g id="edge6" class="edge">
<title>281473275381392&#45;&gt;281473275385312</title>
<path fill="none" stroke="black" stroke-width="0.8" d="M391.41,-241C370.3,-241 351,-241 351,-241 351,-241 351,-67.01 351,-67.01"/>
<polygon fill="black" stroke="black" stroke-width="0.8" points="353.45,-67.01 351,-60.01 348.55,-67.01 353.45,-67.01"/>
<text text-anchor="middle" x="580" y="-145.5" font-family="sans-Serif,sans-Serif" font-size="10.00">job_income_node</text>
</g>
<!-- 281473275381872 -->
<g id="node4" class="node">
<title>281473275381872</title>
<path fill="#f1efe8" stroke="black" stroke-width="0.5" d="M668.5,-272C668.5,-272 539.5,-272 539.5,-272 533.5,-272 527.5,-266 527.5,-260 527.5,-260 527.5,-248 527.5,-248 527.5,-242 533.5,-236 539.5,-236 539.5,-236 668.5,-236 668.5,-236 674.5,-236 680.5,-242 680.5,-248 680.5,-248 680.5,-260 680.5,-260 680.5,-266 674.5,-272 668.5,-272"/>
<text text-anchor="middle" x="604" y="-251.2" font-family="sans-Serif,sans-Serif" font-size="11.00">InvestmentIncomeNode</text>
</g>
<!-- 281473275381872&#45;&gt;281473275385312 -->
<g id="edge7" class="edge">
<title>281473275381872&#45;&gt;281473275385312</title>
<path fill="none" stroke="black" stroke-width="0.8" d="M604,-235.92C604,-184.66 604,-42 604,-42 604,-42 397.27,-42 397.27,-42"/>
<polygon fill="black" stroke="black" stroke-width="0.8" points="397.27,-39.55 390.27,-42 397.27,-44.45 397.27,-39.55"/>
<text text-anchor="middle" x="744.5" y="-145.5" font-family="sans-Serif,sans-Serif" font-size="10.00">investment_income_node</text>
</g>
<!-- __anchor_281473275380112&#45;&gt;__anchor_281473275381072 -->
<g id="edge4" class="edge">
<title>__anchor_281473275380112&#45;&gt;__anchor_281473275381072</title>
<path fill="none" stroke="black" stroke-width="0.8" d="M332,-148C313.05,-148 267,-148 267,-148 267,-148 267,-121.65 267,-96.14"/>
<polygon fill="black" stroke="black" stroke-width="0.8" points="269.45,-96 267,-89 264.55,-96 269.45,-96"/>
<text text-anchor="middle" x="288" y="-100" font-family="sans-Serif,sans-Serif" font-size="10.00">tax_submodule</text>
</g>
<!-- 281473275383312&#45;&gt;281473275385312 -->
<g id="edge8" class="edge">
<title>281473275383312&#45;&gt;281473275385312</title>
<path fill="none" stroke="black" stroke-width="0.8" d="M379.75,-129.54C379.75,-129.54 379.75,-67.25 379.75,-67.25"/>
<polygon fill="black" stroke="black" stroke-width="0.8" points="382.2,-67.25 379.75,-60.25 377.3,-67.25 382.2,-67.25"/>
<text text-anchor="middle" x="512.5" y="-100" font-family="sans-Serif,sans-Serif" font-size="10.00">tax_burden_node</text>
</g>
<!-- __anchor_281473275380432 -->
<!-- __anchor_281473275380432&#45;&gt;__anchor_281473275381072 -->
<g id="edge5" class="edge">
<title>__anchor_281473275380432&#45;&gt;__anchor_281473275381072</title>
<path fill="none" stroke="black" stroke-width="0.8" d="M24,-122C24,-90.62 24,-42 24,-42 24,-42 210.69,-42 251.95,-42"/>
<polygon fill="black" stroke="black" stroke-width="0.8" points="252,-44.45 259,-42 252,-39.55 252,-44.45"/>
<text text-anchor="middle" x="127" y="-100" font-family="sans-Serif,sans-Serif" font-size="10.00">expenses_submodule</text>
</g>
<!-- 281473275384112 -->
<g id="node8" class="node">
<title>281473275384112</title>
<path fill="#f1efe8" stroke="black" stroke-width="0.5" d="M145,-166C145,-166 65,-166 65,-166 59,-166 53,-160 53,-154 53,-154 53,-142 53,-142 53,-136 59,-130 65,-130 65,-130 145,-130 145,-130 151,-130 157,-136 157,-142 157,-142 157,-154 157,-154 157,-160 151,-166 145,-166"/>
<text text-anchor="middle" x="105" y="-145.2" font-family="sans-Serif,sans-Serif" font-size="11.00">ExpensesNode</text>
</g>
<!-- 281473275384112&#45;&gt;281473275385312 -->
<g id="edge9" class="edge">
<title>281473275384112&#45;&gt;281473275385312</title>
<path fill="none" stroke="black" stroke-width="0.8" d="M157.26,-138C220.17,-138 317.5,-138 317.5,-138 317.5,-138 317.5,-67.06 317.5,-67.06"/>
<polygon fill="black" stroke="black" stroke-width="0.8" points="319.95,-67.06 317.5,-60.06 315.05,-67.06 319.95,-67.06"/>
<text text-anchor="middle" x="398" y="-100" font-family="sans-Serif,sans-Serif" font-size="10.00">expenses_node</text>
</g>
</g>
</svg>
